<?xml version="1.0" encoding="UTF-8"?>
<svg id="Layer_2" data-name="Layer 2" xmlns="http://www.w3.org/2000/svg" viewBox="0 0 1285.56 482.12">
  <defs>
    <style>
      .cls-1 {
        opacity: .93;
      }

      .cls-1, .cls-2 {
        fill: #fff;
        stroke-width: 0px;
      }
    </style>
  </defs>
  <path class="cls-2" d="M410.29,158.03c1.27-1.61,2.23-2.79,3.15-3.99,19.62-25.52,39.26-51.02,58.83-76.57,2.02-2.63,4.38-4.69,7.22-6.37,10.02-5.93,20.47-10.65,32.04-12.76,19.13-3.49,36.06,1.21,51.1,13.27,6.32,5.07,11.65,11.03,16.17,18.23-1.32.76-2.46,1.5-3.66,2.11-13.7,6.98-27.39,14-41.16,20.84-2.73,1.35-4.26,3.16-5.35,6-19.38,50.41-38.9,100.76-58.31,151.16-.95,2.47-2.38,4.39-4.22,6.19-27.93,27.41-55.81,54.86-83.76,82.24-2.24,2.19-3.4,4.17-3.05,7.65,1.94,19.37,3.49,38.78,5.14,58.18.12,1.4.02,2.81.02,4.42-8.63,7.12-17.33,14.31-26.05,21.49-12.1,9.96-24.23,19.89-36.28,29.91-1.75,1.45-3.48,2.07-5.73,2.06-12.86-.08-25.73.19-38.58-.16-4.72-.13-9.44-1.45-14.1-2.49-29.15-6.48-58.29-13.02-87.44-19.56-.26-.06-.49-.24-1.01-.5-.11-.77-.33-1.72-.35-2.66-.3-17.65-.67-35.3-.78-52.94-.02-3.4-1.06-5.75-3.45-8.11-10.53-10.44-20.85-21.1-31.32-31.61-1.56-1.56-2.57-3.26-3.11-5.37-15.28-59.25-30.58-118.51-45.95-177.74-.58-2.25-1.67-4.51-3.04-6.39-25.87-35.3-51.77-70.58-77.81-105.75-3.8-5.14-4.98-11.02-6.15-16.92-1.83-9.21-2.12-18.5.53-27.68C6.93,13.53,13.66,5.91,23.69,1.29c4.72-2.17,9.68-1.24,14.47.14,4.31,1.25,7.91,3.79,10.97,6.96,3.73,3.86,7.16,7.99,10.85,11.89,11.17,11.79,22.4,23.53,33.62,35.27,14.83,15.52,29.69,31.02,44.54,46.52.67.7,1.41,1.33,2.49,2.35.53-1.57,1-2.79,1.36-4.06,3.94-13.92,15.54-22.02,31.52-20.01,9.5,1.19,18.88,3.23,28.32,4.87.82.14,1.65.23,2.72.37.14-1.06.29-2,.38-2.94.46-4.8,2.16-9.17,5.59-12.51,3.32-3.23,6.77-6.55,10.74-8.83,6.83-3.91,14.06-7.14,21.21-10.47,3.33-1.55,6.91-1.11,10.39-.31,7.69,1.77,14.4,5.65,21.03,9.71,1.18.73,2.35,1.47,3.99,2.5.94-6.26,3.94-11.15,8.18-15.2,3.15-3.01,6.42-6.08,10.13-8.3,7.24-4.35,14.61-8.6,22.31-12.03,12.39-5.52,26.97-1.46,35.39,9.21,11.8,14.97,23.6,29.94,35.27,45,1.41,1.82,2.32,4.18,2.91,6.43,5.75,22.11,11.39,44.24,17.06,66.37.28,1.07.65,2.12,1.17,3.78ZM323.78,392.22c-.16-.17-.32-.35-.48-.52.89-.68,1.77-1.37,2.68-2.02,10.92-7.78,21.83-15.58,32.78-23.32,6.9-4.89,13.64-9.78,19.18-16.43,25.59-30.63,51.5-60.99,77.24-91.49,1.43-1.7,2.67-3.65,3.62-5.66,6.99-14.81,13.89-29.65,20.82-44.49,15.11-32.37,30.23-64.72,45.27-97.12,1.01-2.18,2.39-3.64,4.42-4.83,9.87-5.77,19.68-11.66,29.5-17.52,1.18-.7,2.29-1.51,3.53-2.34-.56-.85-.85-1.49-1.32-1.96-1.39-1.4-2.77-2.82-4.28-4.08-12.18-10.16-26.02-15.06-41.98-12.99-13.87,1.79-25.72,8.16-36.66,16.45-5.4,4.09-10.52,8.4-14.35,14.21-8.22,12.49-16.67,24.84-25.27,37.07-5.06,7.19-9.51,14.63-12.69,22.85-2.29,5.92-4.9,11.71-7.39,17.56-.82,1.92-1.68,3.83-2.6,5.93-.79-.59-1.27-.89-1.67-1.26-5.68-5.29-11.31-10.63-17.06-15.84-1.5-1.36-1.48-2.92-1.49-4.61-.03-8.19.02-16.38-.13-24.57-.04-2.21-.41-4.51-1.09-6.61-3.3-10.19-6.66-20.37-10.23-30.47-.87-2.45-2.39-4.75-3.97-6.85-1.68-2.25-3.78-4.18-5.68-6.27-7.78-8.55-15.55-17.11-23.33-25.66-3.04-3.34-5.89-6.87-9.18-9.94-6.6-6.16-14.45-8.02-23.17-5.6-5.44,1.51-10.78,3.34-16.21,4.91-9.63,2.78-16.19,8.84-19.8,18.16-1.42,3.67-2.9,7.31-4.44,11.21-1.22-.64-2.21-1.1-3.14-1.66-4.95-3-10.01-5.85-14.8-9.09-3.35-2.27-6.4-2.59-10.24-1.11-8.95,3.45-18.06,6.46-27.12,9.62-8.39,2.93-13.07,9.15-13.53,18.03-.07,1.34-.17,2.68-.27,4.21-10.2-1.33-20.02-2.35-29.74-3.97-5.12-.85-9.46-.26-14.08,2.3-10.13,5.61-16.76,13.6-19.36,24.9-.42,1.81-1.07,3.56-1.75,5.76-1.23-1.29-2.03-2.07-2.76-2.91-30.98-35.2-61.95-70.41-92.91-105.63-5.1-5.81-5.05-6.02-12.75-6.5-10.77-.66-20.16,4.18-22.12,16.77-.62,4-.78,8.18-.42,12.21,1.74,19.11,10.19,35.49,22.09,50.02,20.2,24.64,40.87,48.89,61.42,73.24,2.07,2.45,3.31,5.17,4.18,8.17,7.09,24.48,14.18,48.97,21.3,73.44,9.28,31.91,18.58,63.82,27.93,95.71.5,1.72,1.29,3.43,2.28,4.94,9.34,14.29,18.79,28.51,28.11,42.81,1.24,1.9,2.7,3.04,4.85,3.69,8.49,2.56,16.96,5.23,25.42,7.89,4.45,1.4,8.87,2.87,13.3,4.3-1.27.49-2.38.37-3.47.17-8.86-1.64-17.71-3.35-26.59-4.91-5.1-.89-8.53,2.48-7.82,7.59,1.69,12.29,3.54,24.55,5.08,36.86.38,3,1.63,4.32,4.46,5.17,24.05,7.2,48.05,14.59,72.1,21.81,4.43,1.33,8.98,2.86,13.52,3.06,10.58.45,21.19.11,31.79.17,2.25.01,3.94-.6,5.63-2.23,6.48-6.29,13.13-12.39,19.74-18.54,9.71-9.03,19.41-18.08,29.19-27.03,1.81-1.66,2.57-3.37,2.55-5.85-.11-14.54-.05-29.09-.05-43.64,0-.85.06-1.71-.06-2.54-.3-2.17-1.44-3.39-3.6-3.38-1.49,0-3.08.34-4.46.92-2.59,1.1-5.06,2.48-7.58,3.75-10.31,5.19-20.61,10.38-30.92,15.58Z"/>
  <path class="cls-2" d="M350.09,243.15c-7.07,2.3-14.04,5.22-21.3,6.72-5.43,1.12-11.24.53-16.87.42-.83-.02-1.94-1.46-2.39-2.47-2.87-6.44-5.59-12.94-8.37-19.42-7.05-16.46-14.12-32.9-21.13-49.38-.64-1.52-1.24-3.22-1.22-4.83.26-20.18.64-40.36,1.48-60.6.26,2.9.61,5.79.76,8.7.64,12.54,1.19,25.09,1.85,37.63.08,1.52.51,3.06,1.02,4.51,7.03,19.94,14.15,39.85,21.09,59.82.99,2.84,2.63,4.41,5.3,5.46,12.26,4.81,23.19,2.37,33.2-5.75,1.32-1.07,1.89-2.31,2.06-3.96,1.71-16.98,3.43-33.96,5.21-50.94,1.82-17.4,3.7-34.79,5.56-52.18.42-3.92.86-7.83,1.9-11.75v5.01c0,22.02.13,44.04-.08,66.06-.06,5.89-1.05,11.79-1.75,17.67-1.91,15.96-3.9,31.92-5.87,47.88-.03.27-.16.53-.44,1.39Z"/>
  <path class="cls-2" d="M150.48,157.76c1.91,5.13,3.85,10.25,5.74,15.39,5.39,14.68,10.79,29.36,16.08,44.07.76,2.1,1.87,3.67,3.64,4.99,15.51,11.53,31,23.09,46.46,34.7,1.89,1.42,3.75,2.29,6.22,1.88,2.77-.45,5.62-.44,8.4-.84,6.57-.94,12.54-3.18,17.3-8.77,3.16,4.99,6.13,9.69,9.3,14.7-5.29,5.62-10.51,11.12-15.67,16.68-1.07,1.15-2.21,1.05-3.46.65-6.16-2-12.34-3.97-18.46-6.07-1.3-.45-2.47-1.35-3.6-2.18-17.95-13.22-35.88-26.46-53.84-39.67-1.63-1.2-3.02-2.37-3.48-4.52-5.03-23.55-10.13-47.09-15.21-70.63.2-.12.39-.25.59-.37Z"/>
  <path class="cls-2" d="M306.6,244.94c4.88,6.97,2.27,14.46,3.13,21.61-1.26.51-2.15.93-3.07,1.22-6.45,2.02-12.94,3.92-19.35,6.08-1.82.61-3.2.42-4.77-.47-5.15-2.93-10.41-5.67-15.48-8.72-1.6-.97-3.03-2.52-4.04-4.11-14.1-22.3-28.14-44.64-42.1-67.03-1.08-1.73-1.82-3.84-2.09-5.86-1.64-12.16-3.1-24.34-4.63-36.52-.73-5.88-1.48-11.75-2.2-17.63-.17-1.39-.26-2.78.22-4.28,1.15,5.22,2.34,10.44,3.45,15.67,2.65,12.55,5.21,25.12,7.94,37.65.44,2.01,1.29,4.05,2.39,5.79,13.16,20.89,26.43,41.71,39.58,62.61,1.3,2.06,2.81,3.26,5.21,3.76,5.71,1.19,11.45,1.84,17.22.86,8.1-1.38,11.44-3.4,18.58-10.64Z"/>
  <path class="cls-2" d="M250.68,311.05c-1.37,7.86-2.57,14.77-3.79,21.68-.66,3.75-1.47,7.47-1.96,11.24-.23,1.76-.13,3.67.32,5.38,2.53,9.67,5.26,19.29,7.8,28.96.51,1.94,1.44,3.18,3.17,4.16,4.29,2.44,8.42,5.15,12.71,7.58,1.81,1.03,2.59,2.28,2.62,4.36.09,7.19.3,14.38.5,21.56.45,16.63.92,33.26,1.37,49.9.04,1.48,0,2.96-.61,4.49-1.15-7.64-2.33-15.27-3.43-22.91-1.76-12.27-3.41-24.56-5.26-36.82-.24-1.57-1.11-3.18-2.07-4.5-3.64-5.02-7.5-9.88-11.12-14.91-1.21-1.68-2.24-3.6-2.87-5.56-2.92-9.12-5.34-18.42-8.58-27.42-2.19-6.08-2.48-12.01-1.43-18.21.57-3.33,1.05-6.69,1.29-10.05.18-2.5,1.04-4.57,2.49-6.57,2.24-3.07,4.27-6.3,6.43-9.44.53-.78,1.2-1.46,2.43-2.92Z"/>
  <path class="cls-2" d="M284.45,461.34c-1.17-22.42-2.34-44.85-3.54-67.81,5.94.45,11.44.86,17.57,1.32-7.1,5.92-8.48,13.8-9.57,21.55-1.09,7.79-1.27,15.7-1.88,23.56-.55,7.13-1.14,14.26-1.71,21.39-.29,0-.58,0-.87-.01Z"/>
  <g>
    <path class="cls-2" d="M712.62,79.12c-4.14,0-6.54,1.85-6.54,6.11,0,9.05,4.91,21.7,6.32,38.81h-45.25c1.42-17.99,6.32-29.44,6.32-38.81,0-4.25-2.07-6.11-6.32-6.11s-10.36,1.42-15.26,3.27l-1.09-23.77h77.95l-1.09,23.77c-4.36-1.85-10.58-3.27-15.05-3.27Z"/>
    <path class="cls-2" d="M769.75,78.47c0,1.96.98,3.27,2.4,3.27,1.31,0,2.73-1.09,3.49-2.83,2.94-6.65,7.85-13.74,18.86-13.74,13.52,0,19.62,8.07,19.62,23.88,0,13.63-2.51,24.2.87,35h-37.61c1.74-12.76,2.51-22.68,2.51-28.46,0-4.69-2.62-6.43-5.12-6.43-2.29,0-5.34,1.74-5.34,7.52,0,6.54.54,16.68,2.4,27.37h-37.61c1.85-22.57,1.42-49.39-1.09-73.05h38.16c-.76,6.98-1.53,19.73-1.53,27.47Z"/>
    <path class="cls-2" d="M868.63,100.06c7.41,0,15.59-1.09,22.24-2.94-1.42,18.53-16.57,29.11-35.65,29.11-22.57,0-35.98-11.99-35.98-30.42s14.5-30.64,37.07-30.64c19.84,0,33.47,8.07,33.47,26.82h-35.11c-2.84,0-4.14.87-4.14,2.62,0,3.16,6.21,5.45,18.1,5.45ZM856.31,86.43c3.71,0,5.45-2.73,5.45-5.89,0-3.6-1.74-6.87-5.45-6.87s-5.23,3.27-5.23,6.87c0,3.16,1.53,5.89,5.23,5.89Z"/>
    <path class="cls-1" d="M713.36,168.83h54.41c0,32.74-15.9,42.56-33.99,46.77-4.37.94-6.55,2.34-6.55,4.99,0,2.49,2.65,4.21,8.11,4.21,14.34,0,33.21-6.55,40.22-15.44h.62c1.71,5.46,3.12,12.47,3.12,18.4,0,26.35-13.1,43.81-31.81,43.81s-29-13.1-33.99-32.43c-.94-3.59-2.03-7.02-5.3-7.02s-3.9,3.12-3.9,5.46c0,4.05,1.09,13.88,2.96,24.79h-55.35c2.34-17.93,3.59-34.77,3.59-50.36s-1.25-29.93-3.59-43.19h55.35c-2.18,13.25-3.59,25.1-3.59,33.83,0,5.92,2.03,9.67,5.61,9.67s6.39-3.74,6.39-9.67c0-8.89-.78-20.58-2.34-33.83Z"/>
    <path class="cls-1" d="M785.08,221.99c0-25.1,22.3-43.81,50.52-43.81s50.36,18.71,50.36,43.81-20.42,43.5-50.36,43.5-50.52-17.77-50.52-43.5ZM835.59,215.75c5.77,0,8.57-4.37,8.57-9.35,0-5.61-2.81-10.76-8.57-10.76s-8.26,5.14-8.26,10.76c0,4.99,2.34,9.35,8.26,9.35Z"/>
    <path class="cls-1" d="M893.13,221.99c0-25.1,22.3-43.81,50.52-43.81s50.36,18.71,50.36,43.81-20.42,43.5-50.36,43.5-50.52-17.77-50.52-43.5ZM943.64,215.75c5.77,0,8.57-4.37,8.57-9.35,0-5.61-2.81-10.76-8.57-10.76s-8.26,5.14-8.26,10.76c0,4.99,2.34,9.35,8.26,9.35Z"/>
    <path class="cls-1" d="M1060.58,181.3h52.23c0,39.29-40.54,35.08-40.54,41.94,0,2.18,3.12,3.74,8.57,3.74,15.44,0,28.69-7.8,35.7-17.77h.62c1.71,5.77,3.12,15.12,3.12,21.05,0,19.49-9.98,35.08-26.19,35.08-19.8,0-28.22-13.72-33.21-26.82-1.4-3.59-3.12-6.39-6.08-6.39-2.81,0-3.27,2.49-3.27,4.83,0,5.61.78,16.06,2.34,25.41h-53.79c3.12-32.43,3.12-73.59,0-104.46h53.79c-1.87,11.69-2.49,32.9-2.49,44.75,0,5.92.94,9.67,4.52,9.67s6.39-2.81,6.39-7.17c0-8.89-.78-16.84-1.71-23.85Z"/>
    <path class="cls-1" d="M1155.06,209.52c3.74,0,6.7-1.71,6.7-6.24s-1.87-7.02-10.6-7.02c-14.97,0-22.61-5.46-22.61-16.06,0-13.25,7.33-17.62,25.73-17.62s25.57,10.6,25.57,25.41c0,18.4-15.12,37.89-49.58,37.89v-20.89c10.91,0,20.11,4.52,24.79,4.52Z"/>
    <path class="cls-1" d="M1190.3,200.63c0-17.46,16.06-22.45,36.95-22.45s42.72,3.59,56.44,1.71l-.94,38.2c-9.67-8.11-21.67-13.41-33.05-13.41-4.37,0-7.8,1.71-7.8,4.83,0,10.76,43.65-3.9,43.65,30.25,0,15.9-13.41,25.73-40.38,25.73-21.98,0-34.92-3.27-54.72-3.12l-.62-41.63c9.2,7.17,21.98,12.63,32.9,12.63,6.08,0,9.67-2.34,9.67-5.46,0-10.76-42.09,4.37-42.09-27.28Z"/>
    <path class="cls-2" d="M652.3,356.02c0-34.84,17.56-46.22,42.52-46.22,20.57,0,35.66,3.16,54.87.41v33.74c-13.17-4.66-25.65-6.45-33.33-6.45-6.72,0-10.97,2.33-10.97,6.99,0,3.98,4.25,6.58,10.97,6.58,7.68,0,20.16-.82,33.33-2.74v48.83c-19.2-2.74-35.66.41-54.87.41-24.96,0-42.52-15.5-42.52-41.56Z"/>
    <path class="cls-2" d="M817.17,339.43c.96,2.19,2.06,3.7,3.98,3.7,1.78,0,2.88-1.37,2.88-3.43,0-3.29-.69-10.84-1.51-16.19h44.99c-2.33,23.73-1.78,47.59,1.37,71.32h-47.6c.69-3.7,1.37-10.7,1.37-14.68,0-2.19-.82-3.43-2.61-3.43-1.65,0-2.61,1.1-3.57,2.88-4.94,8.64-13.03,17.97-28.26,17.97-18.93,0-31.27-14.26-31.27-36.9,0-24,12.89-39.92,33.19-39.92,15.23,0,23.32,10.29,27.02,18.65ZM809.21,367.41c6.04,0,10.84-5.49,10.84-11.38,0-3.98-2.61-6.58-6.58-6.58-6.17,0-11.11,5.35-11.11,11.11,0,4.11,2.74,6.86,6.86,6.86Z"/>
    <path class="cls-2" d="M877.38,377.28c0-5.35-2.19-7.82-5.62-7.82v-27.57c3.43-1.37,4.8-3.43,5.76-9.6,2.88-18.38,14.95-30.72,35.11-30.72,15.36,0,24,7.41,24,18.79,0,8.78-6.99,15.77-18.38,15.77s-16.6-4.8-16.6-12.62c0-5.76,3.16-9.74-.96-9.74-3.57,0-6.86,5.35-6.86,12.62,0,10.97,9.05,15.5,24.96,15.5h16.19v27.57h-7.27c-5.08,0-7.13,2.74-7.13,7.82,0,4.53.69,11.93,1.65,17.56h-46.5c.96-5.62,1.65-13.03,1.65-17.56Z"/>
    <path class="cls-2" d="M1003.29,364.66c9.33,0,19.61-1.37,27.98-3.7-1.78,23.32-20.85,36.62-44.85,36.62-28.39,0-45.26-15.09-45.26-38.27s18.24-38.54,46.64-38.54c24.96,0,42.11,10.15,42.11,33.74h-44.17c-3.57,0-5.21,1.1-5.21,3.29,0,3.98,7.82,6.86,22.77,6.86ZM987.79,347.52c4.66,0,6.86-3.43,6.86-7.41,0-4.53-2.19-8.64-6.86-8.64s-6.58,4.11-6.58,8.64c0,3.98,1.92,7.41,6.58,7.41Z"/>
  </g>
</svg>