<?xml version="1.0" encoding="UTF-8"?>
<svg id="Layer_1" xmlns="http://www.w3.org/2000/svg" version="1.1" viewBox="0 0 576 208">
  <!-- Generator: Adobe Illustrator 29.5.1, SVG Export Plug-In . SVG Version: 2.1.0 Build 141)  -->
  <defs>
    <style>
      .st0 {
        fill: #ed1c24;
      }

      .st1 {
        fill: #fff;
      }
    </style>
  </defs>
  <path class="st0" d="M39.36,25.75h18.44l49.6,94.41,16.6-94.41h21.02l-22.68,129.08h-18.44L54.29,60.6l-16.6,94.23h-21.02L39.36,25.75Z"/>
  <path class="st0" d="M162.44,145.8c-7.56-7.01-11.34-16.35-11.34-28.03,0-2.83.31-6.08.92-9.77l6.27-35.4c2.7-15.24,8.67-27.11,17.89-35.59s20.96-12.72,35.22-12.72h19.55c13.15,0,23.51,3.44,31.07,10.33,7.56,6.89,11.34,16.17,11.34,27.84,0,2.83-.31,6.21-.92,10.14l-6.27,35.4c-2.71,15.25-8.7,27.11-17.98,35.59-9.28,8.48-21.11,12.72-35.5,12.72h-19.73c-12.79,0-22.96-3.5-30.52-10.51h0ZM213.43,137.32c8.11,0,14.94-2.64,20.47-7.93,5.53-5.28,9.16-12.66,10.88-22.13l5.9-33.93c.49-2.33.74-4.85.74-7.56,0-6.88-1.91-12.35-5.72-16.41s-9.04-6.09-15.67-6.09h-19.36c-7.99,0-14.75,2.67-20.28,8.02-5.53,5.35-9.1,12.69-10.7,22.04l-6.09,33.93c-.49,3.44-.74,5.84-.74,7.19,0,7.01,1.9,12.57,5.72,16.69,3.81,4.12,8.97,6.18,15.49,6.18h19.36,0Z"/>
  <path class="st0" d="M303.79,25.75h21.57l-22.68,129.08h-21.58l22.68-129.08h0Z"/>
  <path class="st0" d="M341.49,147.46c-6.7-5.9-10.05-13.89-10.05-23.97,0-3.07.25-5.9.74-8.48h21.21c-.25,1.23-.37,2.89-.37,4.98,0,5.41,1.47,9.65,4.43,12.72,2.95,3.07,7.07,4.61,12.35,4.61h20.47c6.15,0,11.25-1.29,15.3-3.87,4.06-2.58,6.51-6.08,7.38-10.51l1.48-8.11c.12-.49.18-1.11.18-1.84,0-2.83-1.11-5.22-3.32-7.19-2.21-1.96-5.35-3.32-9.4-4.06l-32.64-5.53c-8.98-1.6-15.8-4.52-20.47-8.76-4.67-4.24-7.01-9.62-7.01-16.14,0-2.21.12-3.93.37-5.16l1.84-10.14c1.84-9.96,6.61-17.73,14.29-23.33,7.68-5.59,17.49-8.39,29.41-8.39h20.65c10.82,0,19.39,2.74,25.72,8.21,6.33,5.47,9.5,12.88,9.5,22.22,0,2.71-.25,5.23-.74,7.56h-21.02c.25-1.96.37-3.44.37-4.43,0-4.43-1.29-7.96-3.87-10.6-2.58-2.64-6.15-3.96-10.7-3.96h-20.65c-5.78,0-10.63,1.26-14.57,3.78s-6.27,5.93-7.01,10.23l-1.29,6.64c-.12.49-.18,1.23-.18,2.21,0,2.83,1.04,5.19,3.13,7.1,2.09,1.91,5.1,3.23,9.04,3.96l32.46,5.9c9.1,1.6,16.07,4.49,20.93,8.67s7.28,9.47,7.28,15.86c0,.86-.12,2.4-.37,4.61l-2.03,11.99c-1.84,10.21-6.64,18.1-14.38,23.7-7.75,5.6-17.77,8.39-30.06,8.39h-21.02c-11.56,0-20.68-2.95-27.38-8.85v-.02Z"/>
  <path class="st0" d="M454.72,151.51c-2.4-2.21-3.6-5.22-3.6-9.04,0-.74.12-1.84.37-3.32l20.1-113.41h94.41l-3.32,18.62h-72.84l-6.27,35.04h67.31l-3.32,18.81h-67.31l-6.64,37.99h72.84l-3.32,18.62h-78.55c-4.18,0-7.47-1.11-9.87-3.32h.01Z"/>
  <path class="st1" d="M15.43,178.48h8.66l-.37,1.67h-8.63l-1.73,8.15h-1.99l3.77-17.71h10.83l-.34,1.73h-8.87s-1.33,6.16-1.33,6.16Z"/>
  <path class="st1" d="M54.28,170.97c1.22.53,1.89,1.73,1.89,3.45,0,1.22-.11,1.81-1.01,6-.8,3.64-1.3,5.07-2.26,6.16-.9,1.06-2.44,1.73-4.22,1.83-.77.05-1.75.08-2.87.08-2.73,0-3.56-.11-4.59-.61-1.17-.58-1.73-1.62-1.73-3.21,0-1.35.11-1.99,1.04-6.4.5-2.31.66-2.84,1.12-3.96.8-1.96,1.94-3.05,3.77-3.56.85-.24,2.2-.34,4.14-.34,2.84,0,3.69.11,4.73.56h-.01ZM43.77,174.02c-.56.98-.58,1.17-1.51,5.44-.85,3.96-.85,4.04-.85,4.99,0,1.09.29,1.65.96,1.94.69.29,1.49.37,4.35.37,3.35,0,4.3-.34,5.18-1.88.56-.98.61-1.17,1.51-5.42.85-3.98.85-4.04.85-4.99,0-1.09-.29-1.67-.96-1.96-.69-.29-1.51-.37-4.38-.37-3.32,0-4.27.34-5.15,1.88Z"/>
  <path class="st1" d="M75.47,170.6h8.42c2.97,0,4.35.98,4.35,3.13,0,1.67-.72,4.17-1.49,5.23-.58.8-1.35,1.17-2.81,1.41v.03c.58.05.85.13,1.17.29.64.37,1.06,1.14,1.06,1.91,0,.32-.05.77-.16,1.22l-.96,4.49h-1.96l.85-4.04c.19-.8.19-.9.19-1.27,0-.74-.32-1.25-.93-1.54-.5-.24-.77-.27-1.96-.27h-6.03l-1.51,7.12h-1.99l3.77-17.71h0ZM81.34,179.47c2.18,0,3.35-.48,4.04-1.65.37-.61.88-2.87.88-3.8,0-1.25-.74-1.7-2.71-1.7h-6.45l-1.51,7.14h5.76-.01Z"/>
  <path class="st1" d="M122.87,188.31h-1.96l3-14.18.24-1.06c.03-.16.08-.34.11-.53.03-.11.08-.29.13-.53h-.05c-.16.29-.29.5-.4.66-.11.21-.13.26-.58.98l-9.16,14.66h-1.99l-3-14.47c-.11-.53-.21-1.06-.32-1.65h-.03l-.16.77c0,.11-.11.5-.24,1.17l-3,14.18h-1.99l3.77-17.71h3.45l2.28,11.47.37,1.83.16.93.19.93h.03l.58-.93.56-.93,1.14-1.83,7.14-11.47h3.5l-3.77,17.71h0Z"/>
  <path class="st1" d="M159.96,170.6l-2.63,12.4c-.37,1.67-.66,2.52-1.17,3.27-.61.96-1.73,1.67-2.97,1.96-.72.16-2.23.27-4.25.27-2.28,0-3.19-.11-4.01-.45-1.38-.56-1.91-1.38-1.91-2.89,0-.58.08-1.2.29-2.15l2.63-12.4h1.99l-2.66,12.4c-.13.66-.27,1.65-.27,2.04s.13.72.32.9c.64.66,1.41.82,3.98.82,4.62,0,5.31-.42,6.03-3.77l2.63-12.4h2Z"/>
  <path class="st1" d="M177.86,186.45h9.11l-.4,1.86h-11.1l3.77-17.71h1.96l-3.35,15.85h0Z"/>
  <path class="st1" d="M206.7,184.56l-2.15,3.74h-2.12l10.25-17.71h2.79l2.87,17.71h-2.1l-.58-3.74h-8.96ZM213.76,172.22l-6.16,10.75h7.81l-1.65-10.75Z"/>
  <path class="st1" d="M267.42,188.31h-1.96l3.42-16.22-5.58,5.02-1.01-1.2,6.03-5.31h2.87l-3.77,17.71h0Z"/>
  <path class="st1" d="M332.8,188.31h-1.96l3-14.18.24-1.06c.03-.16.08-.34.11-.53.03-.11.08-.29.13-.53h-.05c-.16.29-.29.5-.4.66-.11.21-.13.26-.58.98l-9.16,14.66h-1.99l-3-14.47c-.11-.53-.21-1.06-.32-1.65h-.03l-.16.77c0,.11-.11.5-.24,1.17l-3,14.18h-1.99l3.77-17.71h3.45l2.28,11.47.37,1.83.16.93.19.93h.03l.58-.93.56-.93,1.14-1.83,7.14-11.47h3.5l-3.77,17.71h0Z"/>
  <path class="st1" d="M353.72,184.56l-2.15,3.74h-2.12l10.25-17.71h2.79l2.87,17.71h-2.1l-.58-3.74h-8.96ZM360.79,172.22l-6.16,10.75h7.81l-1.65-10.75Z"/>
  <path class="st1" d="M397.64,179.52c-.21,1.49-.85,4.3-1.27,5.52-.53,1.59-1.7,2.71-3.27,3.13-.8.21-2.31.32-4.57.32-2.97,0-4.2-.24-5.15-.96-.8-.61-1.22-1.7-1.22-3.11,0-.64.13-1.46.53-3.24.05-.35.19-.96.4-1.96.77-3.77,1.27-5.28,2.23-6.64.8-1.12,1.91-1.78,3.5-2.02.61-.11,1.88-.16,3.69-.16,3.66,0,4.38.11,5.42.88.53.42.88,1.19.88,2.02,0,.56-.05.98-.37,2.44h-1.96c.21-1.06.29-1.51.29-1.91,0-1.49-.69-1.7-5.31-1.7-4.19,0-4.91.58-5.89,4.94-.9,3.9-1.43,6.72-1.43,7.49,0,1.88.88,2.23,5.44,2.23,3.37,0,4.22-.37,4.91-2.2.29-.8.56-1.86.82-3.35h-5.63l.37-1.73h7.59,0Z"/>
  <path class="st1" d="M415.75,184.56l-2.15,3.74h-2.12l10.25-17.71h2.79l2.87,17.71h-2.1l-.58-3.74h-8.96ZM422.81,172.22l-6.16,10.75h7.81l-1.65-10.75Z"/>
  <path class="st1" d="M460.44,172.32l-14.15,14.2-.03.05h11.39l-.37,1.73h-13.81l.37-1.78,14.12-14.15v-.05h-10.78l.37-1.73h13.25l-.37,1.73h0Z"/>
  <path class="st1" d="M476.19,188.31h-1.99l3.77-17.71h1.96l-3.74,17.71Z"/>
  <path class="st1" d="M510.62,188.31h-3.27l-4.86-12.05-.8-1.99-.4-.98-.37-.98h-.05c-.08.37-.13.72-.21,1.06-.03.13-.13.66-.34,1.59l-2.81,13.35h-1.99l3.77-17.71h3.24l4.25,10.57,1.12,2.76.53,1.38.56,1.38h.03l.13-.66.13-.66.29-1.33,2.84-13.43h1.99l-3.77,17.71h-.01Z"/>
  <path class="st1" d="M533.33,178.32h8.97l-.34,1.67h-9l-1.41,6.58h9.4l-.37,1.73h-11.36l3.77-17.71h11.36l-.37,1.73h-9.37l-1.27,6h-.01Z"/>
</svg>